<?xml version="1.0" encoding="UTF-8" standalone="no"?><svg xmlns="http://www.w3.org/2000/svg" xmlns:xlink="http://www.w3.org/1999/xlink" fill="#ffffff" height="29.3" preserveAspectRatio="xMidYMid meet" version="1" viewBox="0.0 0.0 500.2 29.3" width="500.2" zoomAndPan="magnify"><g id="change1_1"><path d="M500.19,20.35c-0.01,0.02-0.01,0.05-0.02,0.07c0,0.01-0.01,0-0.02,0.01c-0.01,0.01,0,0.01-0.01,0.02l-10.2,8.75 c-0.05,0.04-0.11,0.06-0.16,0.06c-0.07,0-0.14-0.03-0.19-0.09c-0.09-0.1-0.08-0.26,0.03-0.35l9.72-8.34 c-11.09-0.16-16.82-5.18-22.35-10.05c-5.55-4.89-11.29-9.94-22.55-9.94c-11.26,0-17,5.05-22.55,9.94 c-5.62,4.95-11.43,10.06-22.88,10.06c-11.45,0-17.26-5.12-22.88-10.06c-5.55-4.89-11.28-9.94-22.54-9.94 c-11.26,0-17,5.05-22.54,9.94c-5.62,4.95-11.43,10.06-22.88,10.06s-17.26-5.12-22.87-10.06c-5.55-4.89-11.28-9.94-22.54-9.94 s-17,5.05-22.54,9.94c-5.62,4.95-11.42,10.06-22.87,10.06c-11.45,0-17.26-5.12-22.87-10.06c-5.55-4.89-11.28-9.94-22.54-9.94 c-11.26,0-17,5.05-22.54,9.94c-5.62,4.95-11.42,10.06-22.87,10.06c-11.45,0-17.26-5.12-22.87-10.06 c-5.55-4.89-11.28-9.94-22.54-9.94c-11.26,0-17,5.05-22.54,9.94C62.92,15.38,57.11,20.5,45.67,20.5c-11.45,0-17.26-5.12-22.87-10.06 C17.25,5.55,11.51,0.5,0.25,0.5C0.11,0.5,0,0.39,0,0.25S0.11,0,0.25,0C11.7,0,17.51,5.12,23.12,10.06C28.67,14.95,34.41,20,45.67,20 c11.26,0,17-5.05,22.54-9.94C73.83,5.12,79.64,0,91.08,0c11.45,0,17.26,5.12,22.88,10.06c5.55,4.89,11.28,9.94,22.54,9.94 c11.26,0,17-5.05,22.54-9.94C164.66,5.12,170.47,0,181.92,0c11.45,0,17.26,5.12,22.88,10.06c5.55,4.89,11.28,9.94,22.54,9.94 c11.26,0,17-5.05,22.54-9.94C255.5,5.12,261.31,0,272.76,0c11.45,0,17.26,5.12,22.87,10.06c5.55,4.89,11.28,9.94,22.54,9.94 c11.26,0,17-5.05,22.54-9.94C346.34,5.12,352.15,0,363.59,0s17.26,5.12,22.87,10.06c5.55,4.89,11.28,9.94,22.54,9.94 c11.26,0,17-5.05,22.55-9.94C437.18,5.12,442.99,0,454.44,0c11.45,0,17.26,5.12,22.88,10.06c5.45,4.8,11.09,9.74,21.95,9.92 l-9.65-8.28c-0.1-0.09-0.12-0.25-0.03-0.35c0.09-0.1,0.25-0.12,0.35-0.03l10.2,8.75c0.01,0,0,0.01,0.01,0.02c0,0,0.01,0,0.02,0.01 c0.02,0.02,0.01,0.05,0.02,0.07c0.01,0.03,0.03,0.06,0.03,0.09C500.22,20.3,500.2,20.32,500.19,20.35z" fill="inherit"/></g></svg>